<?xml version="1.0" encoding="UTF-8"?>
<svg width="35px" height="35px" viewBox="0 0 35 35" version="1.1" xmlns="http://www.w3.org/2000/svg" xmlns:xlink="http://www.w3.org/1999/xlink">
    <!-- Generator: Sketch 54.1 (76490) - https://sketchapp.com -->
    <title>contact us icon</title>
    <desc>Created with Sketch.</desc>
    <defs>
        <linearGradient x1="9.32348066%" y1="3.87634656%" x2="74.1585981%" y2="92.9908027%" id="linearGradient-1">
            <stop stop-color="#0B80F4" offset="0%"></stop>
            <stop stop-color="#004080" offset="100%"></stop>
        </linearGradient>
    </defs>
    <g id="Final" stroke="none" stroke-width="1" fill="none" fill-rule="evenodd">
        <g id="contact-us-icon" fill="url(#linearGradient-1)" fill-rule="nonzero">
            <path d="M31.88591,13.3960343 L31.8845749,13.3960343 C31.3566589,5.92082976 25.1071167,0 17.5,0 C9.8928833,0 3.64334106,5.92082976 3.11542513,13.3960343 L3.11409,13.3960343 C1.39709473,13.3960343 0,14.792862 0,16.5101242 L0,21.9105148 C0,23.6277771 1.39709473,25.0248718 3.11409,25.0248718 L9.23091887,25.0248718 L9.23091887,14.4214249 C9.23091887,9.86190796 12.9404831,6.15234375 17.5,6.15234375 C22.0595169,6.15234375 25.7690811,9.86190796 25.7690811,14.4214249 L25.7690811,25.0246048 L27.9162598,25.0246048 L27.9162598,26.1207581 C27.9162598,28.7541961 25.7736206,30.8968353 23.1401825,30.8968353 L22.1118546,30.8968353 C21.6886139,29.7024154 20.5481339,28.8444519 19.2103195,28.8444519 L15.7896805,28.8444519 C14.0924454,28.8444519 12.7119064,30.2249909 12.7119064,31.9222259 C12.7119064,33.619194 14.0924454,35 15.7896805,35 L19.2103195,35 C20.5481339,35 21.6886139,34.1420365 22.1118546,32.9476165 L23.1401825,32.9476165 C26.9044876,32.9476165 29.967041,29.8850632 29.967041,26.1207581 L29.967041,25.0248718 L31.88591,25.0248718 C33.6029053,25.0248718 35,23.6277771 35,21.9105148 L35,16.5101242 C35,14.792862 33.6029053,13.3960343 31.88591,13.3960343 Z M19.2103195,32.9492188 L15.7896805,32.9492188 C15.2233123,32.9492188 14.7626877,32.4885941 14.7626877,31.9222259 C14.7626877,31.3558578 15.2233123,30.8952332 15.7896805,30.8952332 L19.2103195,30.8952332 C19.7766877,30.8952332 20.2373123,31.3558578 20.2373123,31.9222259 C20.2373123,32.4885941 19.7766877,32.9492188 19.2103195,32.9492188 Z M7.18013762,22.9738236 L3.11409,22.9738236 C2.52769467,22.9738236 2.05078125,22.4969101 2.05078125,21.9105148 L2.05078125,16.5101242 C2.05078125,15.9237289 2.52796175,15.4468155 3.11409,15.4468155 L7.18013762,15.4468155 L7.18013762,22.9738236 Z M17.5,4.1015625 C12.1556854,4.1015625 7.74757389,8.18523405 7.23114014,13.3960343 L5.17234799,13.3960343 C5.69519043,7.05276489 11.0242843,2.05078125 17.5,2.05078125 C23.9757157,2.05078125 29.3048096,7.05276489 29.827652,13.3960343 L27.7688599,13.3960343 C27.2524261,8.18523405 22.8443146,4.1015625 17.5,4.1015625 Z M32.9492188,21.9105148 C32.9492188,22.4969101 32.4720383,22.9740906 31.88591,22.9740906 L27.8198624,22.9740906 L27.8198624,15.4468155 L31.88591,15.4468155 C32.4723053,15.4468155 32.9492188,15.9237289 32.9492188,16.5101242 L32.9492188,21.9105148 Z" id="Shape"></path>
        </g>
    </g>
</svg>