<?xml version="1.0" encoding="UTF-8"?>
<svg width="37px" height="37px" viewBox="0 0 37 37" version="1.1" xmlns="http://www.w3.org/2000/svg" xmlns:xlink="http://www.w3.org/1999/xlink">
    <!-- Generator: Sketch 54.1 (76490) - https://sketchapp.com -->
    <title>distributors icon</title>
    <desc>Created with Sketch.</desc>
    <defs>
        <linearGradient x1="9.32348066%" y1="7.67434101%" x2="74.1585981%" y2="89.4507789%" id="linearGradient-1">
            <stop stop-color="#0B80F4" offset="0%"></stop>
            <stop stop-color="#004080" offset="100%"></stop>
        </linearGradient>
        <linearGradient x1="9.32348066%" y1="3.87634656%" x2="74.1585981%" y2="92.9908027%" id="linearGradient-2">
            <stop stop-color="#0B80F4" offset="0%"></stop>
            <stop stop-color="#004080" offset="100%"></stop>
        </linearGradient>
    </defs>
    <g id="Final" stroke="none" stroke-width="1" fill="none" fill-rule="evenodd">
        <g id="distributors-icon" fill-rule="nonzero">
            <path d="M30.3088602,3.83477926 L18.8088602,0.100298481 C18.6081132,0.0351084051 18.3918868,0.0351084051 18.1911398,0.100298481 L6.69113979,3.83477926 C6.27903728,3.96860438 6,4.35259969 6,4.7858867 L6,23 C6,23.5522847 6.44771525,24 7,24 L30,24 C30.5522847,24 31,23.5522847 31,23 L31,4.7858867 C31,4.35259969 30.7209627,3.96860438 30.3088602,3.83477926 Z M24.4782609,13.0936202 L12.5217391,13.0936202 L12.5217391,10.9123442 L24.4782609,10.9123442 L24.4782609,13.0936202 Z M12.5217391,15.2748961 L24.4782609,15.2748961 L24.4782609,17.4561721 L12.5217391,17.4561721 L12.5217391,15.2748961 Z M12.5217391,19.6374481 L24.4782609,19.6374481 L24.4782609,21.818724 L12.5217391,21.818724 L12.5217391,19.6374481 Z M28.826087,21.818724 L26.6521739,21.818724 L26.6521739,9.73106826 C26.6521739,9.17878351 26.2044587,8.73106826 25.6521739,8.73106826 L11.3478261,8.73106826 C10.7955413,8.73106826 10.3478261,9.17878351 10.3478261,9.73106826 L10.3478261,21.818724 L8.17391304,21.818724 L8.17391304,5.64603971 L18.5,2.29261192 L28.826087,5.64603971 L28.826087,21.818724 Z" id="Shape" fill="url(#linearGradient-1)"></path>
            <path d="M1,37 L10,37 C10.5522847,37 11,36.5522847 11,36 L11,27 C11,26.4477153 10.5522847,26 10,26 L1,26 C0.44771525,26 -6.76353751e-17,26.4477153 0,27 L0,36 C6.76353751e-17,36.5522847 0.44771525,37 1,37 Z M2.2,28.2 L4.4,28.2 L4.4,30.4 L6.6,30.4 L6.6,28.2 L8.8,28.2 L8.8,34.8 L2.2,34.8 L2.2,28.2 Z" id="Shape" fill="url(#linearGradient-2)"></path>
            <path d="M14,37 L23,37 C23.5522847,37 24,36.5522847 24,36 L24,27 C24,26.4477153 23.5522847,26 23,26 L14,26 C13.4477153,26 13,26.4477153 13,27 L13,36 C13,36.5522847 13.4477153,37 14,37 Z M15.2,28.2 L17.4,28.2 L17.4,30.4 L19.6,30.4 L19.6,28.2 L21.8,28.2 L21.8,34.8 L15.2,34.8 L15.2,28.2 Z" id="Shape" fill="url(#linearGradient-2)"></path>
            <path d="M26,27 L26,36 C26,36.5522847 26.4477153,37 27,37 L36,37 C36.5522847,37 37,36.5522847 37,36 L37,27 C37,26.4477153 36.5522847,26 36,26 L27,26 C26.4477153,26 26,26.4477153 26,27 Z M34.8,34.8 L28.2,34.8 L28.2,28.2 L30.4,28.2 L30.4,30.4 L32.6,30.4 L32.6,28.2 L34.8,28.2 L34.8,34.8 Z" id="Shape" fill="url(#linearGradient-2)"></path>
        </g>
    </g>
</svg>