<?xml version="1.0" encoding="UTF-8"?>
<svg width="33px" height="29px" viewBox="0 0 33 29" version="1.1" xmlns="http://www.w3.org/2000/svg" xmlns:xlink="http://www.w3.org/1999/xlink">
    <!-- Generator: Sketch 54.1 (76490) - https://sketchapp.com -->
    <title>maintenance &amp; troubleshooting icon</title>
    <desc>Created with Sketch.</desc>
    <defs>
        <linearGradient x1="9.32348066%" y1="14.3801721%" x2="74.1585981%" y2="83.2004271%" id="linearGradient-1">
            <stop stop-color="#0B80F4" offset="0%"></stop>
            <stop stop-color="#004080" offset="100%"></stop>
        </linearGradient>
        <linearGradient x1="9.32348066%" y1="3.87634656%" x2="74.1585981%" y2="92.9908027%" id="linearGradient-2">
            <stop stop-color="#0B80F4" offset="0%"></stop>
            <stop stop-color="#004080" offset="100%"></stop>
        </linearGradient>
    </defs>
    <g id="Final" stroke="none" stroke-width="1" fill="none" fill-rule="evenodd">
        <g id="maintenance-&amp;-troubleshooting-icon" fill-rule="nonzero">
            <path d="M27.5,5.52380952 L23.375,5.52380952 L23.375,1.38095238 C23.375,0.618663991 22.7590027,0 22,0 L11,0 C10.2409973,0 9.625,0.618663991 9.625,1.38095238 L9.625,5.52380952 L5.5,5.52380952 C2.46734623,5.52380952 0,8.00183691 0,11.047619 L0,26.2380952 C0,27.7613235 1.23333736,29 2.75,29 L30.25,29 C31.7666626,29 33,27.7613235 33,26.2380952 L33,11.047619 C33,8.00183691 30.5326538,5.52380952 27.5,5.52380952 Z M12,3 L20,3 L20,6 L12,6 L12,3 Z M3,26 L3,15.6153846 L5.025,15.6153846 C5.77020262,15.6153846 6.375,14.9950796 6.375,14.2307692 C6.375,13.4664589 5.77020262,12.8461538 5.025,12.8461538 L3,12.8461538 L3,10.7692308 C3,9.2419621 4.21091304,8 5.7,8 L27.3,8 C28.789087,8 30,9.2419621 30,10.7692308 L30,12.8461538 L27.975,12.8461538 C27.2297974,12.8461538 26.625,13.4664589 26.625,14.2307692 C26.625,14.9950796 27.2297974,15.6153846 27.975,15.6153846 L30,15.6153846 L30,26 L3,26 Z" id="Shape" fill="url(#linearGradient-1)"></path>
            <path d="M22.6,16.6 L21.6935547,16.6 C21.5961426,16.2752929 21.4686523,15.9635742 21.3090332,15.6703125 L21.9495605,15.0304688 C22.4964355,14.4839355 22.4964355,13.5976562 21.9495605,13.0504395 C21.4043946,12.5035645 20.516748,12.5035645 19.9702148,13.0504395 L19.3296875,13.6909668 C19.0364258,13.5320312 18.7247071,13.4038574 18.4,13.3064453 L18.4,12.4 C18.4,11.6271973 17.7728027,11 17,11 C16.2271973,11 15.6,11.6271973 15.6,12.4 L15.6,13.3064453 C15.2752929,13.4038574 14.9628906,13.5313477 14.6703125,13.6909668 L14.0297852,13.0504395 C13.483252,12.504248 12.5956054,12.5035645 12.0504395,13.0504395 C11.5035645,13.5969727 11.5035645,14.4839355 12.0504395,15.0304688 L12.6909668,15.6703125 C12.5320312,15.9635742 12.4038574,16.2752929 12.3064453,16.6 L11.4,16.6 C10.6271973,16.6 10,17.2271973 10,18 C10,18.7728027 10.6271973,19.4 11.4,19.4 L12.3064453,19.4 C12.4038574,19.7247071 12.5313477,20.0371094 12.6909668,20.3296875 L12.0504395,20.9702148 C11.5035645,21.516748 11.5035645,22.4030273 12.0504395,22.9495605 C12.323877,23.2233398 12.6817383,23.3600585 13.0399415,23.3600585 C13.3984864,23.3600585 13.7563477,23.2233398 14.0297852,22.9495605 L14.6703125,22.3090332 C14.9635742,22.4679688 15.2752929,22.5961426 15.6,22.6935547 L15.6,23.6 C15.6,24.3728027 16.2271973,25 17,25 C17.7728027,25 18.4,24.3728027 18.4,23.6 L18.4,22.6935547 C18.7247071,22.5961426 19.0371094,22.4686523 19.3296875,22.3090332 L19.9702148,22.9495605 C20.2436523,23.2233398 20.6015137,23.3600585 20.9600585,23.3600585 C21.3182617,23.3600585 21.676123,23.2233398 21.9495605,22.9495605 C22.4964355,22.4030273 22.4964355,21.516748 21.9495605,20.9702148 L21.3090332,20.3296875 C21.4679687,20.0364258 21.5961426,19.7247071 21.6935547,19.4 L22.6,19.4 C23.3728027,19.4 24,18.7728027 24,18 C24,17.2271973 23.3728027,16.6 22.6,16.6 L22.6,16.6 Z M15,18 C15,16.8974609 15.8974609,16 17,16 C18.1025391,16 19,16.8974609 19,18 C19,19.1025391 18.1025391,20 17,20 C15.8974609,20 15,19.1025391 15,18 Z" id="Shape" fill="url(#linearGradient-2)"></path>
        </g>
    </g>
</svg>