<?xml version="1.0" encoding="UTF-8"?>
<svg width="37px" height="37px" viewBox="0 0 37 37" version="1.1" xmlns="http://www.w3.org/2000/svg" xmlns:xlink="http://www.w3.org/1999/xlink">
    <!-- Generator: Sketch 54.1 (76490) - https://sketchapp.com -->
    <title>price list icon</title>
    <desc>Created with Sketch.</desc>
    <defs>
        <linearGradient x1="9.32348066%" y1="3.87634656%" x2="74.1585981%" y2="92.9908027%" id="linearGradient-1">
            <stop stop-color="#0B80F4" offset="0%"></stop>
            <stop stop-color="#004080" offset="100%"></stop>
        </linearGradient>
        <linearGradient x1="9.32348066%" y1="3.87634656%" x2="74.1585981%" y2="92.9908027%" id="linearGradient-2">
            <stop stop-color="#0B80F4" offset="0%"></stop>
            <stop stop-color="#004080" offset="100%"></stop>
        </linearGradient>
    </defs>
    <g id="Final" stroke="none" stroke-width="1" fill="none" fill-rule="evenodd">
        <g id="price-list-icon" fill-rule="nonzero">
            <path d="M18.7929592,16.7070932 L17.6540998,17.8459091 C16.4696208,17.276191 15.0030052,17.4808992 14.0223152,18.4615892 C12.781621,19.7022127 12.781621,21.7209393 14.0223152,22.9616334 C14.4359035,23.3752217 14.4359035,24.048107 14.0223152,24.4616246 C13.6087269,24.8752129 12.9358416,24.8752129 12.522324,24.4616246 C12.1088065,24.0480363 12.1087357,23.375151 12.522324,22.9616334 L11.0222622,21.4616423 C10.0416429,22.4423323 9.83686397,23.9089479 10.4066527,25.0933561 L9.70710678,25.7928932 C9.31658126,26.1834163 9.31657927,26.8165813 9.70710234,27.2071068 C9.70710308,27.2071075 9.70710382,27.2071083 9.70710456,27.207109 L9.79289101,27.2928954 C10.1834153,27.6834197 10.8165803,27.6834197 11.2071046,27.2928954 C11.2071053,27.2928947 11.207106,27.292894 11.2071068,27.2928932 L11.9120179,26.5879732 C13.1023659,27.1494888 14.5543443,26.9296485 15.5223064,25.9616865 C16.7628591,24.721063 16.7628591,22.7023364 15.5223064,21.461713 C15.1077988,21.0471347 15.1077281,20.3763001 15.5223064,19.9616511 C15.9358946,19.5481335 16.6087799,19.5482042 17.0222975,19.9616511 C17.4358858,20.3752394 17.4358858,21.0481247 17.0222975,21.461713 L18.5222887,22.9617041 C19.497039,21.9869538 19.7055655,20.5320762 19.1485755,19.3514157 L20.2928745,18.207088 C20.683393,17.8165713 20.6834022,17.1834195 20.2928949,16.7928915 L20.2071728,16.7071203 C19.8166589,16.3165857 19.1834939,16.3165689 18.7929592,16.7070828 C18.7929575,16.7070846 18.7929558,16.7070863 18.792954,16.707088 Z" id="Path" fill="url(#linearGradient-1)"></path>
            <path d="M35.8722195,1.12773019 C33.7219442,-1.02261604 29.3422869,-0.0119431906 25.9017164,3.42855292 C25.2790571,4.05113955 24.7266828,4.71660583 24.2513908,5.41171909 L18.1974418,5.41171909 C17.9348702,5.41171909 17.6828331,5.51499075 17.4957547,5.69923389 L0.717946457,22.2227659 C0.324451743,22.610297 0.319617281,23.2434436 0.707148383,23.6369383 C0.70893436,23.6387517 0.710727253,23.6405584 0.712527025,23.6423581 L13.357648,36.2874714 C13.7481724,36.6779955 14.3813374,36.6779953 14.7718616,36.2874709 C14.773662,36.2856705 14.7754556,36.2838632 14.7772422,36.282049 L31.3007156,19.5041835 C31.4849572,19.3171053 31.5882279,19.0650692 31.5882279,18.8024988 L31.5882279,12.7460209 C32.2769784,12.2760078 32.9462052,11.723417 33.5713953,11.0981549 C37.0119659,7.65765876 38.0226393,3.27807641 35.8722195,1.12773019 Z M14.0583906,33.9203294 L3.07960022,22.9415457 L18.6765978,7.58101046 L28.4189352,7.58101046 C28.97122,7.58101046 29.4189352,8.02872571 29.4189352,8.58101046 L29.4189352,11.5328086 C28.7972883,11.8658671 28.1791122,12.1075261 27.5960786,12.2414437 C27.5122716,11.5427873 27.2037982,10.866113 26.6687783,10.3310934 C25.4000313,9.06241954 23.3357323,9.06241954 22.0670577,10.3310934 C20.7983107,11.5997673 20.7983107,13.6641373 22.0670577,14.9328835 C23.3358047,16.2017021 25.4001036,16.2014851 26.6687783,14.9328835 C26.7998035,14.8018583 26.9165115,14.661939 27.0204206,14.5157288 C27.7874825,14.4591103 28.5995934,14.2556308 29.4189352,13.9229338 L29.4189352,18.3234136 L14.0583906,33.9203294 Z M25.1347991,13.3990499 C24.7119316,13.8219894 24.023832,13.8220617 23.6008922,13.3990499 C23.1769401,12.9750258 23.1769401,12.2890958 23.6008922,11.8650717 C24.0239043,11.4421322 24.7119316,11.4422045 25.1347991,11.8650717 C25.5577389,12.2880112 25.5577389,12.9761827 25.1347991,13.3990499 Z M31.5881556,9.99044239 L31.5881556,6.4117914 C31.5881556,5.85950665 31.1404404,5.4117914 30.5881556,5.4117914 L27.0092126,5.4117914 C27.1468181,5.25972408 27.2885452,5.10968142 27.4356232,4.96253116 C30.1475284,2.25062771 33.2500508,1.57337494 34.3383126,2.66163611 C35.4265744,3.74989728 34.7493213,6.8524178 32.0374161,9.56424894 C31.8904827,9.71125459 31.7403677,9.85305393 31.5881556,9.99044239 Z" id="Shape" fill="url(#linearGradient-2)"></path>
        </g>
    </g>
</svg>