<?xml version="1.0" encoding="UTF-8"?>
<svg width="46px" height="31px" viewBox="0 0 46 31" version="1.1" xmlns="http://www.w3.org/2000/svg" xmlns:xlink="http://www.w3.org/1999/xlink">
    <!-- Generator: Sketch 54.1 (76490) - https://sketchapp.com -->
    <title>products icon</title>
    <desc>Created with Sketch.</desc>
    <defs>
        <linearGradient x1="9.32348066%" y1="29.9638468%" x2="74.1585981%" y2="68.6752402%" id="linearGradient-1">
            <stop stop-color="#0B80F4" offset="0%"></stop>
            <stop stop-color="#004080" offset="100%"></stop>
        </linearGradient>
    </defs>
    <g id="Final" stroke="none" stroke-width="1" fill="none" fill-rule="evenodd">
        <g id="products-icon" transform="translate(1.000000, 1.000000)" fill="url(#linearGradient-1)" fill-rule="nonzero" stroke="url(#linearGradient-1)">
            <path d="M43.2667798,8.69992354 L40.3334694,8.69992354 C40.0401641,8.69992354 39.7467729,8.91742375 39.6734681,9.20739571 L37.6201594,15.2249299 L35.6401555,15.2249299 L33.6601517,11.9624267 C33.5134561,11.7449265 33.2934556,11.599898 33.0001504,11.599898 L30.06684,11.599898 L30.06684,9.42489592 C30.06684,8.9898955 29.7735347,8.69992354 29.3335338,8.69992354 L24.2000473,8.69992354 L24.2000473,5.79994902 L26.4000516,5.79994902 C26.8400524,5.79994902 27.1333577,5.50997706 27.1333577,5.07497664 L27.1333577,0.724972388 C27.1333577,0.289971963 26.8400524,0 26.4000516,0 L13.2000258,0 C12.7600249,0 12.4667197,0.289971963 12.4667197,0.724972388 L12.4667197,5.07497664 C12.4667197,5.50997706 12.7600249,5.79994902 13.2000258,5.79994902 L15.4000301,5.79994902 L15.4000301,8.69992354 L9.5333233,8.69992354 C9.31332287,8.69992354 9.16662727,8.77239529 9.02001761,8.91742375 C8.87340795,9.06245221 8.80001718,9.20739571 8.80001718,9.42489592 L8.80001718,11.599898 L3.66670247,11.599898 C3.22670161,11.599898 2.93339635,11.88987 2.93339635,12.3248704 L2.93339635,16.6748747 L1.46669818,16.6748747 L1.46669818,14.4999575 C1.46669818,14.0649571 1.17339292,13.7749851 0.733392057,13.7749851 C0.293391198,13.7749851 0,14.0649571 0,14.4999575 L0,20.2999915 C0,20.7349919 0.29330526,21.0249639 0.733306119,21.0249639 C1.17330698,21.0249639 1.46661224,20.7349919 1.46661224,20.2999915 L1.46661224,18.1249894 L2.93331042,18.1249894 L2.93331042,23.9250234 C2.93331042,24.3600238 3.22661568,24.6499958 3.66661653,24.6499958 L9.16662727,24.6499958 L11.8799373,28.710028 C12.0266329,28.8550565 12.2466333,29 12.4666337,29 L33.0000644,29 C33.2933697,29 33.5133701,28.8549715 33.6600657,28.5649996 L35.6400696,24.6499958 L37.6933783,24.6499958 L39.6733822,28.5649996 C39.8200778,28.8549715 40.0400782,29 40.3333834,29 L43.2666939,29 C43.7066947,29 44,28.710028 44,28.2750276 L44,9.42498088 C44.0000859,8.98998046 43.7067807,8.69992354 43.2667798,8.69992354 Z M13.9333319,1.44994478 L25.6666595,1.44994478 L25.6666595,4.34991929 L23.4666552,4.34991929 L16.1333362,4.34991929 L13.9333319,4.34991929 L13.9333319,1.44994478 Z M16.8667282,5.79994902 L22.733435,5.79994902 L22.733435,8.69992354 L16.8667282,8.69992354 L16.8667282,5.79994902 Z M4.40000859,23.199966 L4.40000859,13.0499278 L8.80001718,13.0499278 L8.80001718,23.199966 L4.40000859,23.199966 Z M32.4867587,27.5499703 L12.8333297,27.5499703 L10.2666294,23.7093923 L10.2666294,12.3249554 L10.2666294,10.1499533 L16.1333362,10.1499533 L23.4666552,10.1499533 L28.6000558,10.1499533 L28.6000558,12.3249554 C28.6000558,12.7599558 28.8933611,13.0499278 29.333362,13.0499278 L32.5600636,13.0499278 L34.4667626,16.1916164 L34.4667626,23.6349664 L32.4867587,27.5499703 Z M35.9333749,23.199966 L35.9333749,16.6749596 L37.400073,16.6749596 L37.400073,23.199966 L35.9333749,23.199966 Z M42.5333877,27.5499703 L40.7733843,27.5499703 L38.8666853,23.9145732 L38.8666853,15.9525361 L40.8466891,10.1499533 L42.5333877,10.1499533 L42.5333877,27.5499703 Z" id="Shape"></path>
        </g>
    </g>
</svg>