<?xml version="1.0" encoding="UTF-8"?>
<svg width="16px" height="16px" viewBox="0 0 16 16" version="1.1" xmlns="http://www.w3.org/2000/svg" xmlns:xlink="http://www.w3.org/1999/xlink">
    <!-- Generator: Sketch 54.1 (76490) - https://sketchapp.com -->
    <title>search </title>
    <desc>Created with Sketch.</desc>
    <g id="Final" stroke="none" stroke-width="1" fill="none" fill-rule="evenodd">
        <g id="search" transform="translate(-4.000000, -4.000000)" fill="#9EA3BA">
            <path d="M14.7105775,9.52087886 L14.4580903,9.77152205 C15.3500286,10.8115998 15.89251,12.1599504 15.89251,13.6372816 C15.89251,16.9212562 13.2304174,19.5831966 9.946255,19.5831966 C6.66209262,19.5831966 4,16.9212562 4,13.6372816 C4,10.353307 6.66209262,7.69136654 9.946255,7.69136654 C11.4236707,7.69136654 12.7711835,8.23290218 13.8113208,9.12387469 L14.0638079,8.8732315 L14.0638079,8.14874462 L17.9216123,4.2965635 C18.3161691,3.90258185 18.9523732,3.89953118 19.3499682,4.29710337 L19.2860524,4.23319131 C19.6803548,4.62747112 19.6863621,5.26147253 19.2870212,5.66175131 L15.4369354,9.52087886 L14.7105775,9.52087886 Z M10,9.58319662 C7.79022222,9.58319662 6,11.3734188 6,13.5831966 C6,15.7920855 7.79022222,17.5831966 10,17.5831966 C12.2088889,17.5831966 14,15.7920855 14,13.5831966 C14,11.3734188 12.2088889,9.58319662 10,9.58319662 L10,9.58319662 Z" id="Shape" transform="translate(11.792079, 11.791598) scale(1, -1) translate(-11.792079, -11.791598) "></path>
        </g>
    </g>
</svg>